HIERARCHY
ROOT Hips
{
 OFFSET 0.000000 0.000000 0.000000
 CHANNELS 6 Xposition Yposition Zposition Yrotation Xrotation Zrotation
 JOINT Chest
 {
  OFFSET 0.000000 9.581000 -0.001100
  CHANNELS 3 Yrotation Xrotation Zrotation
  JOINT Chest2
  {
   OFFSET 0.000000 9.561100 0.002200
   CHANNELS 3 Yrotation Xrotation Zrotation
   JOINT Chest3
   {
    OFFSET 0.000000 9.521100 0.000000
    CHANNELS 3 Yrotation Xrotation Zrotation
    JOINT Chest4
    {
     OFFSET 0.000000 9.511400 0.000000
     CHANNELS 3 Yrotation Xrotation Zrotation
     JOINT Neck
     {
      OFFSET 0.000000 14.375100 0.000000
      CHANNELS 3 Yrotation Xrotation Zrotation
      JOINT Head
      {
       OFFSET 0.000000 8.901200 0.004600
       CHANNELS 3 Yrotation Xrotation Zrotation
       End Site
       {
        OFFSET 0.000000 16.962200 0.002400
       }
      }
     }
     JOINT RightCollar
     {
      OFFSET -2.920100 9.518800 0.000000
      CHANNELS 3 Yrotation Xrotation Zrotation
      JOINT RightShoulder
      {
       OFFSET -13.664500 0.000000 0.000000
       CHANNELS 3 Yrotation Xrotation Zrotation
       JOINT RightElbow
       {
        OFFSET 0.000000 -29.999200 0.000000
        CHANNELS 3 Yrotation Xrotation Zrotation
        JOINT RightWrist
        {
         OFFSET 0.000000 -24.253600 0.000000
         CHANNELS 3 Yrotation Xrotation Zrotation
         End Site
         {
          OFFSET 0.000000 -17.918900 0.000000
         }
        }
       }
      }
     }
     JOINT LeftCollar
     {
      OFFSET 2.920100 9.518800 0.000000
      CHANNELS 3 Yrotation Xrotation Zrotation
      JOINT LeftShoulder
      {
       OFFSET 13.664500 0.000000 0.000000
       CHANNELS 3 Yrotation Xrotation Zrotation
       JOINT LeftElbow
       {
        OFFSET 0.000000 -29.999200 0.000000
        CHANNELS 3 Yrotation Xrotation Zrotation
        JOINT LeftWrist
        {
         OFFSET 0.000000 -24.253600 0.000000
         CHANNELS 3 Yrotation Xrotation Zrotation
         End Site
         {
          OFFSET 0.000000 -17.918900 0.000000
         }
        }
       }
      }
     }
    }
   }
  }
 }
 JOINT RightHip
 {
  OFFSET -7.797300 0.005300 0.000500
  CHANNELS 3 Yrotation Xrotation Zrotation
  JOINT RightKnee
  {
   OFFSET 0.000000 -40.663400 -0.000500
   CHANNELS 3 Yrotation Xrotation Zrotation
   JOINT RightAnkle
   {
    OFFSET 0.000000 -39.523700 -0.000900
    CHANNELS 3 Yrotation Xrotation Zrotation
    JOINT RightToe
    {
     OFFSET 0.000000 -6.418000 14.485300
     CHANNELS 3 Yrotation Xrotation Zrotation
     End Site
     {
      OFFSET 0.000000 -1.465200 6.326400
     }
    }
   }
  }
 }
 JOINT LeftHip
 {
  OFFSET 7.797300 0.005300 0.000500
  CHANNELS 3 Yrotation Xrotation Zrotation
  JOINT LeftKnee
  {
   OFFSET 0.000000 -40.663400 -0.000500
   CHANNELS 3 Yrotation Xrotation Zrotation
   JOINT LeftAnkle
   {
    OFFSET 0.000000 -39.523700 -0.000900
    CHANNELS 3 Yrotation Xrotation Zrotation
    JOINT LeftToe
    {
     OFFSET 0.000000 -6.418000 14.485300
     CHANNELS 3 Yrotation Xrotation Zrotation
     End Site
     {
      OFFSET 0.000000 -1.465200 6.326400
     }
    }
   }
  }
 }
}
MOTION
Frames: 12
Frame Time: 0.008333
-9.263791 126.431823 1.731506 171.495661 -28.731837 -3.518254 3.232888 20.126721 2.106571 0.355849 2.618805 0.216131 0.603063 4.145907 0.327137 2.703758 17.269213 1.723611 1.712289 17.885636 0.241773 1.757962 -6.890213 -0.133215 -6.197918 1.016140 2.122344 -31.285884 -12.384507 -4.526523 -113.270325 -18.978312 94.127060 -25.406131 -7.910621 -15.615887 -3.154452 1.964328 4.632153 29.427080 -14.248222 -1.684712 100.947901 -31.286828 -82.092979 27.778373 -26.590674 4.443565 1.471651 -53.380899 3.599201 -118.665649 85.270180 -119.575616 9.643854 -24.832022 3.887398 0.003270 -0.002530 0.001449 -7.018474 -46.855702 -2.634237 51.704613 83.155884 44.616261 2.122564 -9.961146 4.728544 0.005720 -0.001786 0.002534
-9.265631 126.431915 1.733397 171.504857 -28.744269 -3.523340 3.230095 20.087107 2.097764 0.360676 2.546507 0.200198 0.596211 4.172338 0.336683 2.699058 17.259938 1.724441 1.728351 17.996404 0.268529 1.802904 -6.762015 -0.102916 -6.183401 1.014095 2.144299 -31.216985 -12.332636 -4.475757 -113.259794 -18.999689 94.164183 -25.354988 -7.890067 -15.599708 -3.173015 1.947696 4.608819 29.345725 -14.271410 -1.668038 100.894062 -31.302874 -82.015502 27.764421 -26.577803 4.454828 1.526062 -53.387307 3.534311 -120.046805 85.209185 -120.938434 9.557173 -25.362668 3.790410 0.005696 -0.017628 0.002523 -7.009840 -46.847378 -2.632627 51.840985 83.183170 44.738065 2.120079 -9.983754 4.741257 0.001504 -0.001230 0.000667
-9.268566 126.432634 1.734230 171.524400 -28.763630 -3.522112 3.211074 20.054169 2.077635 0.359734 2.568758 0.204760 0.592589 4.124022 0.329054 2.692674 17.231864 1.719331 1.765454 18.112541 0.298820 1.857736 -6.666780 -0.070933 -6.162283 1.031686 2.160728 -31.149386 -12.292363 -4.418696 -113.248415 -19.025400 94.200364 -25.301526 -7.865731 -15.593950 -3.187314 1.935192 4.585921 29.280891 -14.288862 -1.649469 100.847301 -31.342960 -81.934096 27.752887 -26.535737 4.463491 1.597701 -53.392636 3.449640 -121.379628 85.149036 -122.256119 9.457397 -25.828140 3.699685 0.015011 -0.063366 0.006644 -7.001707 -46.832421 -2.652283 51.881312 83.196932 44.776599 2.115670 -9.986779 4.746506 0.005069 -0.006180 0.002246
-9.270500 126.433199 1.735937 171.538406 -28.780540 -3.521304 3.196127 20.030917 2.062785 0.359756 2.578028 0.206966 0.590617 4.115622 0.328041 2.679855 17.163025 1.704579 1.851143 18.196214 0.352095 1.892930 -6.561766 -0.045759 -6.133665 1.050167 2.176150 -31.081911 -12.250341 -4.367743 -113.254677 -19.075294 94.226668 -25.266475 -7.819482 -15.596483 -3.198582 1.929036 4.562704 29.224827 -14.303144 -1.627461 100.830963 -31.420184 -81.844494 27.751351 -26.451983 4.471872 1.622009 -53.389606 3.416197 -122.392398 85.092942 -123.285354 9.355287 -26.272184 3.620279 0.021912 -0.074137 0.009698 -6.999205 -46.818025 -2.665808 51.926122 83.207957 44.817685 2.118134 -9.995114 4.744352 0.003262 -0.006301 0.001445
-9.271430 126.433549 1.738532 171.527266 -28.795893 -3.511836 3.200406 19.988846 2.048575 0.360396 2.569221 0.204622 0.584550 4.077927 0.323527 2.676256 17.155255 1.702257 1.933737 18.275243 0.399791 1.950452 -6.461703 -0.017685 -6.100414 1.071775 2.188872 -31.014123 -12.208711 -4.320069 -113.268910 -19.129019 94.246169 -25.227772 -7.763131 -15.614710 -3.205082 1.930089 4.538222 29.171889 -14.315407 -1.604479 100.762250 -31.451140 -81.777534 27.680103 -26.434618 4.502951 1.672835 -53.412318 3.381174 -123.311016 85.033546 -124.203963 9.248385 -26.613243 3.548687 0.028509 -0.099705 0.012613 -6.965287 -46.807763 -2.667977 51.946955 83.248545 44.819027 2.132955 -10.016540 4.768564 -0.010389 -0.008672 -0.004602
-9.271473 126.433307 1.742591 171.524184 -28.803550 -3.509899 3.195666 19.925276 2.034978 0.360586 2.572888 0.206211 0.579801 4.041989 0.317265 2.675218 17.147729 1.698631 1.981864 18.371574 0.434757 2.053764 -6.377861 0.006766 -6.077245 1.139155 2.199247 -30.939979 -12.204240 -4.252016 -113.318071 -19.213619 94.258002 -25.214659 -7.673422 -15.649374 -3.208142 1.934935 4.515007 29.119134 -14.324667 -1.582890 100.701414 -31.497419 -81.718172 27.614114 -26.412093 4.532894 1.688696 -53.443433 3.360363 -123.776314 84.942189 -124.665998 9.198235 -26.878243 3.477901 0.031088 -0.116506 0.013750 -6.926640 -46.802260 -2.668472 51.854209 83.279474 44.730532 2.123850 -10.024682 4.782391 -0.002247 -0.010531 -0.000995
-9.269799 126.433638 1.746120 171.526558 -28.817700 -3.517804 3.192292 19.897677 2.034838 0.352821 2.484279 0.191072 0.585444 4.093858 0.326004 2.674906 17.120401 1.690060 2.028127 18.462688 0.472272 2.164065 -6.290153 0.020594 -6.059652 1.201880 2.212897 -30.867160 -12.202153 -4.191328 -113.317267 -19.262525 94.265436 -25.156440 -7.632291 -15.693679 -3.213018 1.937771 4.497939 29.068151 -14.330483 -1.563732 100.613310 -31.537487 -81.675246 27.546370 -26.430466 4.567235 1.675625 -53.452807 3.363536 -123.587952 84.815542 -124.468922 9.202225 -27.085013 3.416586 0.034830 -0.103933 0.015407 -6.917286 -46.788843 -2.655862 51.801489 83.298606 44.680458 2.119339 -10.031403 4.781165 0.002978 -0.009301 0.001319
-9.266550 126.433539 1.750957 171.514419 -28.826582 -3.527100 3.207552 19.891502 2.048834 0.350262 2.442016 0.181894 0.586099 4.094988 0.326644 2.678269 17.081363 1.677186 2.153703 18.523104 0.515898 2.194623 -6.188977 0.047594 -6.036248 1.209940 2.233223 -30.808130 -12.168743 -4.165372 -113.302076 -19.313871 94.260390 -25.100203 -7.606312 -15.733798 -3.222130 1.933728 4.488139 29.018079 -14.332677 -1.546832 100.538888 -31.585326 -81.629354 27.504335 -26.439106 4.578418 1.657308 -53.470629 3.382425 -123.141917 84.689949 -124.004261 9.229209 -27.209272 3.375503 0.036238 -0.081162 0.016036 -6.908831 -46.779954 -2.624053 51.722587 83.323723 44.597121 2.118831 -10.041125 4.789713 0.002839 -0.005935 0.001258
-9.265715 126.433143 1.755762 171.492112 -28.834104 -3.515404 3.221543 19.850989 2.036005 0.351840 2.440667 0.181538 0.588468 4.125863 0.334060 2.682317 17.019397 1.656138 2.248013 18.581206 0.548872 2.252996 -6.115238 0.069022 -6.012905 1.160546 2.253671 -30.755685 -12.100796 -4.170016 -113.293331 -19.374828 94.247778 -25.063917 -7.582824 -15.765371 -3.232649 1.921496 4.485009 28.968022 -14.330503 -1.533721 100.464671 -31.633734 -81.589177 27.475305 -26.489352 4.592719 1.541354 -53.492982 3.433304 -122.839666 84.592122 -123.737361 9.320825 -27.277557 3.344835 0.009346 -0.064480 0.004137 -6.879629 -46.773438 -2.617425 51.713977 83.336332 44.583498 2.110334 -10.052096 4.797939 0.003169 -0.003814 0.001404
-9.262578 126.434625 1.757843 171.490995 -28.862612 -3.523657 3.219952 19.810699 2.029290 0.357184 2.467609 0.186405 0.588085 4.108783 0.331608 2.695323 17.012015 1.648215 2.285827 18.635986 0.579727 2.367357 -6.074030 0.068515 -6.008119 1.159656 2.269595 -30.695705 -12.085025 -4.145257 -113.278446 -19.423096 94.230768 -25.039825 -7.577574 -15.786368 -3.245422 1.900941 4.488530 28.921438 -14.323180 -1.526090 100.404082 -31.691281 -81.553794 27.464823 -26.523890 4.600733 1.423349 -53.472550 3.499623 -122.294381 84.491663 -123.207937 9.403283 -27.365572 3.346508 0.000459 -0.020851 0.000203 -6.876588 -46.743141 -2.598920 51.631625 83.353211 44.496163 2.113006 -10.060957 4.806308 0.001280 -0.000442 0.000567
-9.259994 126.435733 1.760629 171.486943 -28.887138 -3.526439 3.225926 19.825474 2.033232 0.358861 2.457952 0.183197 0.586737 4.076600 0.323761 2.715757 17.012161 1.642286 2.317560 18.674295 0.609381 2.481790 -6.052417 0.060754 -6.019999 1.195087 2.289604 -30.631218 -12.112946 -4.102942 -113.260129 -19.451585 94.212978 -25.026256 -7.583490 -15.797811 -3.263574 1.870964 4.495537 28.876129 -14.311519 -1.520070 100.344387 -31.754228 -81.522240 27.451592 -26.477249 4.550607 1.299775 -53.447555 3.566765 -121.909924 84.405362 -122.841083 9.520243 -27.421905 3.315330 -0.000657 0.001684 -0.000291 -6.869475 -46.716909 -2.581466 51.510601 83.369138 44.365029 2.114940 -10.064622 4.817483 0.000658 0.001051 0.000292
-9.258554 126.437031 1.762871 171.482183 -28.915376 -3.520146 3.234378 19.823775 2.022307 0.357716 2.471047 0.187345 0.600538 4.030526 0.308618 2.730004 17.034836 1.648994 2.384875 18.688843 0.634817 2.548090 -6.033781 0.059989 -6.022459 1.171824 2.304098 -30.586211 -12.095753 -4.082081 -113.238589 -19.463672 94.196757 -25.010307 -7.591307 -15.802330 -3.284178 1.833077 4.502957 28.825475 -14.296891 -1.511066 100.288312 -31.823025 -81.490988 27.432139 -26.460634 4.524329 1.178524 -53.409745 3.630046 -121.703482 84.342467 -122.653269 9.608882 -27.536414 3.342774 0.003592 0.009762 0.001592 -6.856088 -46.688777 -2.575553 51.442132 83.381678 44.275193 2.114460 -10.068616 4.839144 -0.004554 0.001199 -0.002018
